<?xml version="1.0" encoding="UTF-8"?>
<svg xmlns="http://www.w3.org/2000/svg" xmlns:serif="http://www.serif.com/" version="1.1" viewBox="0 0 56 57.3">
  <defs>
    <style>
      .cls-1 {
        fill: #faebd7;
        fill-rule: evenodd;
      }
    </style>
  </defs>
  <!-- Generator: Adobe Illustrator 28.6.0, SVG Export Plug-In . SVG Version: 1.2.0 Build 709)  -->
  <g>
    <g id="Layer_1">
      <g id="Layer_1-2" data-name="Layer_1">
        <path class="cls-1" d="M45.5,5.3c3.2,0,5.8,2.6,5.8,5.8v35.7c0,3.2-2.6,5.8-5.8,5.8h-9.8v-17.8h6.1l1.2-7.6h-7.3v-4.9c0-2.1,1-4.1,4.3-4.1h3.3v-6.5s-3-.5-5.9-.5c-6,0-10,3.6-10,10.3v5.8h-6.7v7.6h6.7v17.8H9.9c-3.2,0-5.8-2.6-5.8-5.8V11.1c0-3.2,2.6-5.8,5.8-5.8h35.7,0Z"/>
      </g>
    </g>
  </g>
</svg>